<svg t="1706350467937" class="icon" viewBox="0 0 1024 1024" version="1.1" xmlns="http://www.w3.org/2000/svg" p-id="12698" width="200" height="200"><path d="M554.4 466.349c-23.293 0-42.491-21.054-42.746-21.337l3.543-3.168c1.261 1.403 31.145 34.086 59.994 12.486 10.212-7.632 9.879-11.615 9.872-11.657l4.585-1.233c0.34 1.084 1.396 6.966-11.608 16.696-7.965 5.96-16.023 8.213-23.641 8.213z" fill="#1296db" p-id="12699"></path><path d="M567.949 642.257c0 9.694-7.845 17.532-17.504 17.532-9.673 0-17.518-7.838-17.518-17.532 0-9.652 7.845-17.511 17.518-17.511 9.659 0 17.504 7.859 17.504 17.511z" fill="#1296db" p-id="12700"></path><path d="M550.452 662.163c-10.97 0-19.899-8.929-19.899-19.906 0-10.963 8.929-19.885 19.899-19.885 10.963 0 19.878 8.922 19.878 19.885-0.007 10.977-8.922 19.906-19.878 19.906zM550.452 627.127c-8.355 0-15.144 6.789-15.144 15.13 0 8.355 6.789 15.151 15.144 15.151 8.341 0 15.123-6.796 15.123-15.151-0.007-8.341-6.789-15.13-15.123-15.13z" fill="#1296db" p-id="12701"></path><path d="M565.362 711.223c0 9.694-7.845 17.532-17.504 17.532-9.673 0-17.518-7.838-17.518-17.532 0-9.652 7.845-17.511 17.518-17.511 9.659 0 17.504 7.852 17.504 17.511z" fill="#1296db" p-id="12702"></path><path d="M547.866 731.129c-10.97 0-19.899-8.929-19.899-19.906 0-10.963 8.929-19.885 19.899-19.885 10.963 0 19.878 8.922 19.878 19.885-0.007 10.977-8.922 19.906-19.878 19.906zM547.866 696.086c-8.355 0-15.144 6.789-15.144 15.13 0 8.355 6.789 15.151 15.144 15.151 8.341 0 15.123-6.796 15.123-15.151-0.007-8.341-6.789-15.13-15.123-15.13z" fill="#1296db" p-id="12703"></path><path d="M669.010 280.902c-0.163-0.234-16.533-23.548-39.543-25.207-13.386-0.978-26.737 5.591-39.663 19.495l-6.966-6.477c15.009-16.136 30.897-23.69 47.38-22.5 27.588 2.034 45.857 28.183 46.629 29.296l-7.838 5.393z" fill="#1296db" p-id="12704"></path><path d="M491.79 273.404c-0.184-0.269-19.027-27.099-45.51-29.005-15.406-1.127-30.763 6.435-45.637 22.436l-8.015-7.448c17.27-18.574 35.624-27.318 54.516-25.894 31.748 2.331 52.773 32.435 53.659 33.718l-9.014 6.194z" fill="#1296db" p-id="12705"></path><path d="M444.197 288.123c-8.879 0-16.108 7.221-16.108 16.093 0 8.879 7.228 16.101 16.108 16.101 8.872 0 16.086-7.221 16.086-16.101 0-8.879-7.221-16.093-16.086-16.093z" fill="#1296db" p-id="12706"></path><path d="M566.73 407.098l-3.076-9c0.085-0.028 6.654-2.317 13.592-6.732-21.097-14.775-20.402-56.706-20.36-58.669l9.51 0.213c-0.283 12.855 2.998 47.458 21.33 53.142l8.249 2.558-6.576 5.605c-9.964 8.49-22.16 12.706-22.67 12.883z" fill="#1296db" p-id="12707"></path><path d="M651.464 321.005c-2.459-1.524-20.778-2.948-31.726-3.805-18.652-1.453-19.013-1.481-19.424-3.883l1.531-2.728c3.316-1.481 42.682-8.383 50.541-9.744l0.815 4.684c-10.857 1.892-25.944 4.599-36.623 6.654 1.176 0.092 2.367 0.184 3.529 0.276 21.267 1.658 31.223 2.721 34.015 4.606l-2.657 3.94z" fill="#1296db" p-id="12708"></path><path d="M730.96 214.501c2.537-21.756 7.228-101.996-55.076-151.602-31.592-25.157-78.476-39.585-128.634-39.585-58.768 0-112.101 19.155-142.658 51.235-47.749 50.137-45.29 105.901-43.979 118.741l-38.643 34.547 34.355-4.592c-13.053 18.191-21.423 40.421-21.423 64.473 0 34.887 19.644 66.018 40.903 86.363v18.907l-34.164 58.336 12.153 16.377 22.011-37.502v57.642c0 22.826 21.862 35.44 33.491 37.743l0.56 2.36h255.518c15.59 0 28.169-6.548 35.333-15.059 8.32-9.9 8.164-24.25 8.164-27.368v-249.395l1.41-13.797c3.132 0.673 6.527 1.346 9.404 1.977l34.178 7.802-22.904-17.603zM354.511 287.712c0-22.953 8.511-43.915 22.478-60.044 8.844-10.219 19.878-18.475 32.392-24.009 11.345-5.024 23.867-7.866 37.048-7.866 4.564 0 9.014 0.446 13.401 1.091 9.716 1.431 18.921 4.358 27.404 8.589 0.035 0.021 0.078 0.035 0.113 0.057 30.181 15.087 51.002 46.211 51.002 82.189 0 50.683-41.236 91.919-91.919 91.919-20.756 0-39.862-6.994-55.268-18.645-5.173-3.912-9.928-8.334-14.173-13.231-13.96-16.136-22.478-37.098-22.478-60.051zM694.698 486v1.162c0 0.007 0 5.35 0 5.35h0.383c0.007 0-0.843 7.831-6.038 13.89-4.344 5.074-12.571 7.37-23.676 7.37h-254.030c-3.657 0-21.359-10.531-21.359-25.93v-81.459l10.906-17.341c13.755 6.13 29.239 9.609 45.247 9.609 61.171 0 111.081-49.761 111.081-110.932 0-34.724-15.987-65.742-41.045-86.101l30.77-4.202c40.861 0.893 105.242 12.040 147.761 21.543v0.064c0 0.12 0.815 0.234 1.361 0.347l-1.361 15.512v251.117zM721.202 211.49c-3.239-0.709-19.417-4.727-26.504-5.698v-0.035c-42.519-9.51-108.53-20.324-150.17-20.324l-43.674 5.903c-16.164-9.22-34.667-14.556-54.573-14.556-30.592 0-58.251 12.444-78.341 32.541l-10.587 1.368 13.727-13.578-0.574-2.53c-0.099-0.602-8.957-60.738 41.059-113.264 28.792-30.231 79.504-48.068 135.728-48.068 48.039 0 92.451 14.109 122.391 37.948 57.245 45.58 53.645 119.549 51.519 140.292z" fill="#1296db" p-id="12709"></path><path d="M729.365 549.204h-122.908l-5.067-35.659-105.242 1.587-4.344 34.072h-131.1l-10.637 3.288 1.913-39.174-32.867-3.6v-17.993l38.536-20.402-13.209-19.778-41.194-11.020-64.012 62.404-22.181-1.864-45.262 153.38 37.268 45.396 145.486 47.657v219.809h4.557l186.17 36.517 172.351-35.206 105.284-70.008-93.542-349.407zM505.248 552.747l0.928-7.087 2.502-19.091 80.446-0.503 2.927 19.594 1.063 7.087 1.85 14.123c-16.228 7.179-38.303 17.766-44.758 17.766h-0.376c-9.057 0-31.429-10.233-46.317-16.83l1.736-15.059zM432.498 556.291h58.379l-2.877 20.197 4.741 0.439c4.103 1.913 40.549 18.659 57.082 18.659l0.857-0.014c12.571-0.418 48.11-16.391 55.098-19.587l4.883-0.461-3.139-19.233h30.486v198.422h-205.509v-198.422zM305.181 445.734l37.7 9.857 9.935 15.236-37.24 18.666 0.057 19.828-66.769-5.598 56.316-57.989zM217.451 687.575l-29.82-36.34 39.855-134.991 109.947 9.22-2.112 32.265-0.659 10.034-5.542 84.606 14.237 0.935 6.094-91.317 14.641-5.705h54.233v198.422h-49.606v-21.26h-10.63l-2.941-0.765-137.698-45.106zM545.116 989.269l-176.397-34.589v-178.707h329.728l8.149 179.069-161.48 34.228zM707.326 652.49l-14.244 2.544 4.408 99.679h-45.311v-198.422h66.216l88.425 332.726-86.186 59.753-13.308-296.28z" fill="#1296db" p-id="12710"></path><path d="M625.017 832.664h-148.817c-27.347 0-49.606 22.252-49.606 49.606s22.259 49.606 49.606 49.606h148.817c27.347 0 49.606-22.252 49.606-49.606s-22.259-49.606-49.606-49.606zM625.017 917.702h-148.817c-19.537 0-35.433-15.895-35.433-35.433s15.895-35.433 35.433-35.433h148.817c19.537 0 35.433 15.895 35.433 35.433s-15.895 35.433-35.433 35.433z" fill="#1296db" p-id="12711"></path></svg>